<?xml version="1.0" encoding="utf-8"?>
<!-- Generator: Adobe Illustrator 18.0.0, SVG Export Plug-In . SVG Version: 6.00 Build 0)  -->
<!DOCTYPE svg PUBLIC "-//W3C//DTD SVG 1.1//EN" "http://www.w3.org/Graphics/SVG/1.1/DTD/svg11.dtd">
<svg version="1.1" id="Layer_2" xmlns="http://www.w3.org/2000/svg" xmlns:xlink="http://www.w3.org/1999/xlink" x="0px" y="0px"
	 viewBox="0 123.2 512 265.7" enable-background="new 0 123.2 512 265.7" xml:space="preserve">
<path fill="#482656" d="M46.8,125L84,204.9h-8.5l-12.6-26H28.6l-12.6,26H7.1L45,125H46.8z M46.1,142.1l-13.7,29h27.1L46.1,142.1z
	 M94,123.2h7.4v81.7H94V123.2z M116.3,123.2h7.4v81.7h-7.4V123.2z M220.3,125l37.2,79.9h-8.5l-12.6-26h-34.6l-12.3,26h-8.9
	l37.9-79.9H220.3z M219.2,142.1l-13.7,29H233L219.2,142.1z M269.4,204.9v-81.7h7.4v33.1c3.3-4.1,6.7-6.7,10.8-8.9
	c4.1-1.9,8.2-3,13-3c8.2,0,15.6,3,21.6,8.9c5.9,5.9,8.9,13.4,8.9,21.9s-3,16-8.9,21.9c-5.9,5.9-13,8.9-21.6,8.9c-4.8,0-9.3-1.1-13-3
	c-4.1-2.2-7.4-5.2-10.4-9.3v11.1H269.4z M299.8,199.3c4.1,0,8.2-1.1,11.5-3c3.7-2.2,6.3-4.8,8.5-8.9c2.2-3.7,3.3-7.8,3.3-11.9
	s-1.1-8.2-3.3-11.9s-4.8-6.7-8.5-8.9c-3.7-2.2-7.4-3.3-11.5-3.3s-8.2,1.1-11.9,3.3c-3.7,2.2-6.7,4.8-8.5,8.5c-1.9,3.7-3,7.8-3,12.3
	c0,6.7,2.2,12.6,6.7,17.1S293.2,199.3,299.8,199.3z M372.7,144.3c9.3,0,16.7,3.3,22.7,10c5.6,5.9,8.2,13,8.2,21.2s-3,15.6-8.5,21.6
	c-5.6,6.3-13,9.3-22.3,9.3c-8.9,0-16.3-3-22.3-9.3c-5.6-6.3-8.5-13.4-8.5-21.6s2.6-15.2,8.2-21.2
	C355.9,147.7,363.4,144.3,372.7,144.3z M372.7,151.8c-6.3,0-11.9,2.2-16.3,7.1c-4.5,4.8-6.7,10.4-6.7,17.1c0,4.1,1.1,8.2,3,11.9
	c2.2,3.7,4.8,6.7,8.5,8.5c3.3,1.9,7.4,3,11.5,3c4.1,0,8.2-1.1,11.5-3c3.3-1.9,6.3-4.8,8.5-8.5c2.2-3.7,3-7.8,3-11.9
	c0-6.7-2.2-12.3-6.7-17.1C384.2,154.4,379,151.8,372.7,151.8z M416.5,145.8h7.4v27.5c0,6.7,0.4,11.5,1.1,13.7
	c1.1,3.7,3.3,6.3,6.3,8.5c3,2.2,6.7,3,11.1,3c4.1,0,7.8-1.1,10.8-3c3-2.2,4.8-4.8,5.9-8.2c0.7-2.2,1.1-7.1,1.1-14.5v-27.1h7.8v29
	c0,8.2-1.1,14.1-3,18.6c-1.9,4.1-4.8,7.4-8.5,9.7c-3.7,2.2-8.5,3.3-14.5,3.3c-5.9,0-10.4-1.1-14.5-3.3c-3.7-2.2-6.7-5.6-8.5-9.7
	c-1.9-4.1-3-10.4-3-18.9v-28.6H416.5z M491.6,123.9h7.4v21.9h11.9v6.7H499v52.4h-7.4v-52.4h-10.4v-6.7h10.4V123.9z M1.5,351.7h3.3
	l9.7,22.3l9.7-22.3h3.3l-12.6,29h-1.1L1.5,351.7z M65,373.6l2.2,1.1c-0.7,1.5-1.5,2.6-2.6,3.7c-1.1,0.7-2.2,1.5-3.3,2.2
	c-1.1,0.4-2.6,0.7-4.1,0.7c-3.3,0-6.3-1.1-8.2-3.3s-3-4.8-3-7.8c0-2.6,0.7-5.2,2.6-7.4c2.2-2.6,4.8-4.1,8.5-4.1
	c3.7,0,6.7,1.5,8.9,4.1c1.5,1.9,2.2,4.5,2.2,7.4H49c0,2.6,0.7,4.5,2.2,6.3c1.5,1.5,3.3,2.2,5.6,2.2c1.1,0,2.2-0.4,3.3-0.7
	c1.1-0.4,1.9-0.7,2.6-1.5C63.2,376.2,64.3,375.1,65,373.6z M65,368c-0.4-1.5-0.7-2.6-1.5-3.7c-0.7-0.7-1.5-1.5-3-2.2
	c-1.1-0.4-2.2-0.7-3.7-0.7c-2.2,0-4.1,0.7-5.6,1.9c-1.1,1.1-1.9,2.6-2.6,4.5H65V368z M88.4,359.5H91v3.7c1.1-1.5,2.2-2.6,3.7-3.3
	c1.5-0.7,3-1.1,4.5-1.1s3,0.4,4.5,1.1c1.5,0.7,2.2,1.9,2.6,3.3c0.7,1.5,0.7,3.7,0.7,6.3v11.1h-2.6v-10.4c0-2.6,0-4.1-0.4-4.8
	c-0.4-1.5-1.1-2.6-1.9-3.3c-0.7-0.7-2.2-1.1-3.7-1.1c-1.9,0-3.3,0.4-4.5,1.5c-1.5,1.1-2.2,2.6-2.6,4.1c-0.4,1.1-0.4,3-0.4,5.9v7.8
	h-2.6V359.5z M130.8,351.3h3v7.8h4.5v2.2h-4.5v18.9h-2.6v-18.9h-3.7v-2.2h3.7v-7.8H130.8z M157.2,359.5h2.6v10c0,2.6,0,4.1,0.4,5.2
	c0.4,1.5,1.1,2.2,2.2,3c1.1,0.7,2.6,1.1,4.1,1.1s3-0.4,4.1-1.1c1.1-0.7,1.9-1.9,2.2-3c0.4-0.7,0.4-2.6,0.4-5.2v-10h3v10.4
	c0,3-0.4,5.2-1.1,6.7c-0.7,1.5-1.9,2.6-3,3.3c-1.5,0.7-3,1.1-5.2,1.1c-2.2,0-3.7-0.4-5.2-1.1c-1.5-0.7-2.6-1.9-3-3.7
	c-0.7-1.5-1.1-3.7-1.1-6.7v-10H157.2z M196.6,359.5h3v3c0.7-1.1,1.9-2.2,2.6-2.6c0.7-0.4,1.9-0.7,3-0.7c0.7,0,1.5,0.4,2.6,0.7
	l-1.5,2.2c-0.7-0.4-1.1-0.4-1.5-0.4c-0.7,0-1.9,0.4-2.6,1.1c-0.7,0.7-1.5,1.9-1.9,3.3c-0.4,1.1-0.4,3.7-0.4,7.4v7.4h-3v-21.6H196.6z
	 M246.7,359.5V381h-2.6v-3.7c-1.1,1.5-2.6,2.6-3.7,3.3c-1.5,0.7-3,1.1-4.8,1.1c-3,0-5.6-1.1-7.8-3.3s-3.3-4.8-3.3-8.2
	c0-3,1.1-5.6,3.3-7.8c2.2-2.2,4.8-3.3,7.8-3.3c1.9,0,3.3,0.4,4.8,1.1s2.6,1.9,3.7,3.3v-4.1L246.7,359.5L246.7,359.5z M235.6,361.3
	c-1.5,0-3,0.4-4.1,1.1c-1.5,0.7-2.2,1.9-3,3.3c-0.7,1.5-1.1,3-1.1,4.5c0,1.5,0.4,3,1.1,4.5c0.7,1.5,1.9,2.6,3,3.3
	c1.5,0.7,2.6,1.1,4.1,1.1c1.5,0,3-0.4,4.5-1.1s2.2-1.9,3-3c0.7-1.1,1.1-2.6,1.1-4.5c0-2.6-0.7-4.5-2.6-6.3
	C240,362.4,237.8,361.3,235.6,361.3z M322.1,357.2l-2.2,1.9c-1.1-1.5-2.6-3-4.5-3.7c-1.9-0.7-3.7-1.1-5.9-1.1s-4.5,0.4-6.3,1.5
	c-1.9,1.1-3.3,2.6-4.5,4.5c-1.1,1.9-1.5,4.1-1.5,6.3c0,3.7,1.1,6.3,3.7,8.9c2.6,2.2,5.6,3.7,9.3,3.7c4.1,0,7.4-1.5,10-4.8l2.2,1.9
	c-1.5,1.9-3.3,3.3-5.6,4.5s-4.5,1.5-7.4,1.5c-5.2,0-8.9-1.9-11.9-5.2c-2.6-3-3.7-6.3-3.7-10.4s1.5-7.8,4.5-10.8
	c3-3,6.7-4.5,11.1-4.5c2.6,0,5.2,0.4,7.4,1.5S320.7,355.4,322.1,357.2z M353,358.7c3.3,0,5.9,1.1,8.2,3.7c1.9,2.2,3,4.8,3,7.8
	c0,3-1.1,5.6-3,7.8c-2.2,2.2-4.8,3.3-8.2,3.3s-5.9-1.1-8.2-3.3c-1.9-2.2-3-4.8-3-7.8s1.1-5.6,3-7.8C347,359.8,349.6,358.7,353,358.7
	z M353,361.7c-2.2,0-4.5,0.7-5.9,2.6c-1.5,1.9-2.6,3.7-2.6,6.3c0,1.5,0.4,3,1.1,4.5c0.7,1.5,1.9,2.2,3,3c1.1,0.7,2.6,1.1,4.1,1.1
	c1.5,0,3-0.4,4.1-1.1c1.1-0.7,2.2-1.9,3-3c0.7-1.5,1.1-3,1.1-4.5c0-2.2-0.7-4.5-2.6-6.3C357.4,362.4,355.6,361.7,353,361.7z
	 M384.6,359.5h2.6v10c0,2.6,0,4.1,0.4,5.2c0.4,1.5,1.1,2.2,2.2,3c1.1,0.7,2.6,1.1,4.1,1.1c1.5,0,3-0.4,4.1-1.1
	c1.1-0.7,1.9-1.9,2.2-3c0.4-0.7,0.4-2.6,0.4-5.2v-10h3v10.4c0,3-0.4,5.2-1.1,6.7c-0.7,1.5-1.9,2.6-3,3.3c-1.5,0.7-3,1.1-5.2,1.1
	c-2.2,0-3.7-0.4-5.2-1.1c-1.5-0.7-2.6-1.9-3-3.7c-0.7-1.5-1.1-3.7-1.1-6.7v-10H384.6z M424.7,359.5h2.6v3.7c1.1-1.5,2.2-2.6,3.7-3.3
	c1.5-0.7,3-1.1,4.5-1.1c1.5,0,3,0.4,4.5,1.1c1.1,0.7,2.2,1.9,2.6,3.3c0.7,1.5,0.7,3.7,0.7,6.3v11.1h-2.6v-10.4c0-2.6,0-4.1-0.4-4.8
	c-0.4-1.5-1.1-2.6-1.9-3.3c-0.7-0.7-2.2-1.1-3.7-1.1c-1.9,0-3.3,0.4-4.5,1.5c-1.5,1.1-2.2,2.6-2.6,4.1c-0.4,1.1-0.4,3-0.4,5.9v7.8
	h-2.6V359.5z M467,351.3h2.6v7.8h4.5v2.2h-4.5v18.9H467v-18.9h-3.7v-2.2h3.7V351.3z M491.6,359.5h3l7.4,16.7l7.1-16.7h3l-12.6,29.4
	h-3l4.1-9.7L491.6,359.5z"/>
<linearGradient id="SVGID_1_" gradientUnits="userSpaceOnUse" x1="83.95" y1="455.4511" x2="83.95" y2="482.7811" gradientTransform="matrix(3.7155 0 0 -3.7155 0 2025.521)">
	<stop  offset="0.18" style="stop-color:#84BB3B"/>
	<stop  offset="0.5" style="stop-color:#482656"/>
</linearGradient>
<path fill="url(#SVGID_1_)" d="M111.8,234.3h18.6v79.1h26.8v17.5h-45.3V234.3z M209.6,231.7c13.7,0,25.3,4.8,35.3,14.9
	c9.7,10,14.9,21.9,14.9,36s-4.8,26-14.5,35.7c-9.7,9.7-21.6,14.5-35.3,14.5c-14.5,0-26.8-4.8-36-15.2c-9.7-10-14.5-21.9-14.5-35.7
	c0-9.3,2.2-17.8,6.7-25.6s10.8-13.7,18.6-18.6C192.1,233.9,200.3,231.7,209.6,231.7z M209.2,249.9c-8.9,0-16.3,3-22.7,9.3
	c-5.9,6.3-9.3,14.1-9.3,23.8c0,10.8,3.7,19.3,11.5,25.3c5.9,4.8,12.6,7.4,20.4,7.4c8.5,0,16-3,22.3-9.3s9.3-14.1,9.3-23.4
	s-3-17.1-9.3-23.4C225.5,252.8,218.1,249.9,209.2,249.9z M361.5,251l-13,12.3c-8.9-9.3-18.6-13.7-29.7-13.7
	c-9.3,0-17.1,3.3-23.4,9.3c-6.3,6.3-9.7,14.1-9.7,23.4c0,6.3,1.5,12.3,4.1,17.1c3,4.8,6.7,8.9,11.9,11.9c5.2,3,10.8,4.5,17.1,4.5
	c5.2,0,10.4-1.1,14.5-3c4.5-1.9,9.3-5.6,14.5-10.8l12.6,13c-7.1,7.1-13.7,11.9-20.1,14.5c-6.3,2.6-13.7,4.1-21.9,4.1
	c-14.9,0-27.5-4.8-36.8-14.1c-9.7-9.7-14.5-21.9-14.5-36.8c0-9.7,2.2-18.2,6.7-25.6c4.5-7.4,10.8-13.4,18.6-18.2
	c8.2-4.5,16.7-6.7,26.4-6.7c7.8,0,15.6,1.9,23,5.2C350,240.2,356.3,245,361.5,251z M402,234.3h18.6l37.2,96.6h-18.9l-7.4-20.1H392
	l-7.8,20.1h-18.9L402,234.3z M411.3,259.9l-13,33.1h26L411.3,259.9z M466.7,234.3h18.6v79.1H512v17.5h-45.3L466.7,234.3L466.7,234.3
	z"/>
<path fill="#84BB3B" d="M78,249.9c0,5.2-1.1,10-3.3,14.1l-0.7,1.5l-27.1,50.9l-27.5-51.3l-0.4-0.7c-2.2-4.5-3.7-9.3-3.7-14.5
	c0-17.5,14.1-31.6,31.6-31.6S78,232.4,78,249.9z M57.6,249.9c0-5.9-4.8-10.8-10.8-10.8S36,243.9,36,249.9s4.8,10.8,10.8,10.8
	S57.6,255.8,57.6,249.9z"/>
<path fill="#482656" d="M93.6,315.6c0,11.5-20.8,21.2-46.8,21.2S0,327.5,0,315.6c0-9.3,13-17.1,31.2-20.1l1.1,2.2
	c-14.1,2.2-24.2,7.4-24.2,13.7c0,8.2,17.1,14.5,38.3,14.5s38.3-6.7,38.3-14.5c0-6.3-10-11.5-24.2-13.7l1.1-2.2
	C80.3,298.5,93.6,306.3,93.6,315.6z"/>
</svg>
