<svg id="bogo" xmlns="http://www.w3.org/2000/svg" width="16" height="16" viewBox="0 0 16 16">
  <rect id="Rectangle_1" data-name="Rectangle 1" width="16" height="16" fill="none"/>
  <path id="Path_2" data-name="Path 2" d="M493.8,226.854h.856V222H493.8v-1.386h4.385q.224,0,.411.006c.125,0,.243.01.355.02a2.861,2.861,0,0,1,.32.047,3.147,3.147,0,0,1,.316.083,2.236,2.236,0,0,1,.544.279,1.864,1.864,0,0,1,.422.409,1.839,1.839,0,0,1,.271.52,1.92,1.92,0,0,1,.1.621,2.072,2.072,0,0,1-.058.486,1.906,1.906,0,0,1-.171.451,1.837,1.837,0,0,1-.285.391,1.675,1.675,0,0,1-.394.3v.02a1.747,1.747,0,0,1,.572.289,1.593,1.593,0,0,1,.374.42,1.668,1.668,0,0,1,.206.5,2.3,2.3,0,0,1,.063.539,2.151,2.151,0,0,1-.14.789,2.161,2.161,0,0,1-.917,1.081,2.376,2.376,0,0,1-.642.265c-.1.025-.2.044-.29.058s-.183.024-.275.031-.186.011-.279.013-.193,0-.3,0H493.8Zm4.525-3.286a.72.72,0,0,0,.3-.057.571.571,0,0,0,.209-.159.69.69,0,0,0,.123-.234,1.042,1.042,0,0,0,.038-.284.973.973,0,0,0-.083-.393.493.493,0,0,0-.271-.269.852.852,0,0,0-.211-.054,2.1,2.1,0,0,0-.258-.013h-1.606v1.463Zm.162,3.177a.872.872,0,0,0,.349-.062.669.669,0,0,0,.343-.334,1.115,1.115,0,0,0,.115-.5.945.945,0,0,0-.049-.31.719.719,0,0,0-.146-.25.652.652,0,0,0-.247-.166.96.96,0,0,0-.355-.06h-1.929v1.682ZM493.8,232.5a4.007,4.007,0,0,1,.3-1.576,3.613,3.613,0,0,1,.844-1.231,3.828,3.828,0,0,1,1.292-.8,4.589,4.589,0,0,1,1.648-.287,5.964,5.964,0,0,1,.708.044,5.649,5.649,0,0,1,.706.131,4.378,4.378,0,0,1,.644.213,2.531,2.531,0,0,1,.529.295,1.366,1.366,0,0,1,.357.369.805.805,0,0,1,.131.443v1.234h-1.71v-.552a.358.358,0,0,0-.1-.252.777.777,0,0,0-.27-.18,1.761,1.761,0,0,0-.4-.11,3.172,3.172,0,0,0-.49-.036,2.839,2.839,0,0,0-.933.143,1.785,1.785,0,0,0-1.131,1.117,2.738,2.738,0,0,0-.151.948,3.105,3.105,0,0,0,.151.99,2.2,2.2,0,0,0,.446.784,2.01,2.01,0,0,0,.73.515,2.529,2.529,0,0,0,1,.185c.129,0,.269-.008.422-.023a2.257,2.257,0,0,0,.43-.086,1.025,1.025,0,0,0,.337-.17.333.333,0,0,0,.135-.273v-.521H498.2v-1.39h2.939v2.541a.84.84,0,0,1-.164.511,1.535,1.535,0,0,1-.434.393,2.959,2.959,0,0,1-.618.286,6.025,6.025,0,0,1-.709.193,6.536,6.536,0,0,1-.714.109q-.353.035-.628.034a4.52,4.52,0,0,1-1.119-.135,4.049,4.049,0,0,1-.979-.388,3.837,3.837,0,0,1-.816-.612,3.766,3.766,0,0,1-.62-.8,4,4,0,0,1-.394-.961A4.219,4.219,0,0,1,493.8,232.5Zm14.061-10.53a2.193,2.193,0,0,0-4.148,0l.912.409a1.2,1.2,0,0,1,2.324,0Zm1.416.432c-.047-.08-.1-.152-.154-.227-.047.053-.084.116-.134.166a4.309,4.309,0,0,1-1.42.946l-.007,0c.034.068.073.131.1.2a2.427,2.427,0,0,1,.161.89,2.618,2.618,0,0,1-.161.928,2.364,2.364,0,0,1-.439.739,2,2,0,0,1-.645.489,1.853,1.853,0,0,1-1.585,0,2,2,0,0,1-.646-.489,2.361,2.361,0,0,1-.438-.739,2.6,2.6,0,0,1-.162-.928,2.407,2.407,0,0,1,.162-.89,2.122,2.122,0,0,1,.1-.2l-.009,0a4.306,4.306,0,0,1-1.417-.946c-.051-.051-.087-.113-.135-.166-.052.075-.107.147-.153.227a3.861,3.861,0,0,0-.389.935,3.994,3.994,0,0,0-.135,1.046,4.1,4.1,0,0,0,.3,1.568,3.823,3.823,0,0,0,2.1,2.115,4.37,4.37,0,0,0,3.218,0,3.818,3.818,0,0,0,2.106-2.115,4.076,4.076,0,0,0,.3-1.568,3.994,3.994,0,0,0-.135-1.046A3.9,3.9,0,0,0,509.28,222.4Zm-1.416,7.685a2.192,2.192,0,0,0-4.148,0l.912.408a1.2,1.2,0,0,1,2.324,0Zm1.416.431c-.047-.079-.1-.152-.154-.227-.047.053-.084.116-.134.167a4.322,4.322,0,0,1-1.42.945l-.007,0c.034.068.073.131.1.2a2.436,2.436,0,0,1,.161.891,2.617,2.617,0,0,1-.161.927,2.352,2.352,0,0,1-.439.739,2,2,0,0,1-.645.49,1.863,1.863,0,0,1-1.585,0,2,2,0,0,1-.646-.49,2.35,2.35,0,0,1-.438-.739,2.6,2.6,0,0,1-.162-.927,2.416,2.416,0,0,1,.162-.891,2.122,2.122,0,0,1,.1-.2l-.009,0a4.319,4.319,0,0,1-1.417-.945c-.051-.051-.087-.114-.135-.167-.052.075-.107.148-.153.227a3.878,3.878,0,0,0-.389.935,4,4,0,0,0-.135,1.047,4.094,4.094,0,0,0,.3,1.567,3.823,3.823,0,0,0,2.1,2.115,4.37,4.37,0,0,0,3.218,0,3.818,3.818,0,0,0,2.106-2.115,4.075,4.075,0,0,0,.3-1.567,4,4,0,0,0-.135-1.047A3.916,3.916,0,0,0,509.28,230.515Z" transform="translate(-493.803 -220.486)" fill="#fff"/>
</svg>
