<svg id="dining" xmlns="http://www.w3.org/2000/svg" width="16" height="16" viewBox="0 0 16 16">
  <path id="dining-2" data-name="dining" d="M603.963,224.819a.545.545,0,0,0-.028-.053.5.5,0,0,0-.066-.1.437.437,0,0,0-.049-.047.467.467,0,0,0-.091-.061.5.5,0,0,0-.066-.03c-.012,0-.022-.012-.035-.016L599,223.28a2.964,2.964,0,0,1-.184.986l2.746.732L596,226.481,590.44,225l2.745-.732a2.964,2.964,0,0,1-.184-.986l-4.631,1.235c-.013,0-.023.012-.035.016a.479.479,0,0,0-.065.03.465.465,0,0,0-.091.061.44.44,0,0,0-.05.047.5.5,0,0,0-.065.1.555.555,0,0,0-.029.053A.489.489,0,0,0,588,225v8.5a.5.5,0,0,0,.371.484l7.5,2A.57.57,0,0,0,596,236a.563.563,0,0,0,.129-.016l7.5-2A.5.5,0,0,0,604,233.5V225A.489.489,0,0,0,603.963,224.819ZM589,233.115v-7.466l6.871,1.832a.52.52,0,0,0,.129.017V230l7-1.866v2.5l-7,1.866v2.483Zm6.063-2.366a1,1,0,1,1-1-1A1,1,0,0,1,595.062,230.749Zm-3.141-.844a1,1,0,1,1-1-1A1,1,0,0,1,591.921,229.9ZM596,225.261a1.994,1.994,0,0,1-1.358-3.46,1.985,1.985,0,0,0-3.12-.087.5.5,0,0,1-.766-.644,2.977,2.977,0,0,1,4.765.256,2,2,0,1,1,.479,3.935Z" transform="translate(-587.999 -219.999)" fill="#fff"/>
</svg>