<svg id="giftcards" xmlns="http://www.w3.org/2000/svg" width="16" height="16" viewBox="0 0 16 16">
  <rect id="Rectangle_1" data-name="Rectangle 1" width="16" height="16" fill="none"/>
  <path id="Path_1" data-name="Path 1" d="M549.137,223.573v-3.205l-7.552,3.205h-.391v12.795h10.842V223.573Zm-.985-1.718v1.718h-4.046Zm2.9,13.529h-8.873V224.557h8.873Zm-6.9-1.855,2.439-1.7,2.411,1.74-.863-2.845,2.4-1.755-2.97-.059-.93-2.821-.974,2.8-2.971.011,2.369,1.794Zm2.212-3.653.249-.716.237.72.755.014-.611.447.22.723-.613-.442-.621.433.231-.719-.6-.457Z" transform="translate(-538.194 -220.368)" fill="#fff"/>
</svg>
