<?xml version="1.0" encoding="utf-8"?>
<!-- Generator: Adobe Illustrator 18.0.0, SVG Export Plug-In . SVG Version: 6.00 Build 0)  -->
<!DOCTYPE svg PUBLIC "-//W3C//DTD SVG 1.1//EN" "http://www.w3.org/Graphics/SVG/1.1/DTD/svg11.dtd">
<svg version="1.1" id="Layer_1" xmlns="http://www.w3.org/2000/svg" xmlns:xlink="http://www.w3.org/1999/xlink" x="0px" y="0px"
	 viewBox="230.1 400.9 135 40" enable-background="new 230.1 400.9 135 40" xml:space="preserve">
<g>
	<path d="M360.1,440.9h-125c-2.8,0-5-2.2-5-5v-30c0-2.8,2.2-5,5-5h125c2.8,0,5,2.2,5,5v30C365.1,438.7,362.9,440.9,360.1,440.9z"/>
	<path fill="#A7A6A6" d="M360.1,401.7c2.3,0,4.2,1.9,4.2,4.2v30c0,2.3-1.9,4.2-4.2,4.2h-125c-2.3,0-4.2-1.9-4.2-4.2v-30
		c0-2.3,1.9-4.2,4.2-4.2H360.1z M360.1,400.9h-125c-2.8,0-5,2.3-5,5v30c0,2.8,2.2,5,5,5h125c2.8,0,5-2.2,5-5v-30
		C365.1,403.2,362.9,400.9,360.1,400.9z"/>
	<path fill="#FFFFFF" stroke="#FFFFFF" stroke-width="0.2" stroke-miterlimit="10" d="M277.5,411.1c0,0.8-0.2,1.5-0.7,2
		c-0.6,0.6-1.3,0.9-2.2,0.9c-0.9,0-1.6-0.3-2.2-0.9c-0.6-0.6-0.9-1.3-0.9-2.2s0.3-1.6,0.9-2.2c0.6-0.6,1.3-0.9,2.2-0.9
		c0.4,0,0.8,0.1,1.2,0.3c0.4,0.2,0.7,0.4,0.9,0.7l-0.5,0.5c-0.4-0.5-0.9-0.7-1.6-0.7c-0.6,0-1.2,0.2-1.6,0.7c-0.5,0.4-0.7,1-0.7,1.7
		c0,0.7,0.2,1.3,0.7,1.7c0.5,0.4,1,0.7,1.6,0.7c0.7,0,1.2-0.2,1.7-0.7c0.3-0.3,0.5-0.7,0.5-1.2h-2.2v-0.8h2.9V411.1L277.5,411.1z
		 M282.1,408.6h-2.7v1.9h2.5v0.7h-2.5v1.9h2.7v0.8h-3.5v-6h3.5V408.6z M285.4,413.9h-0.8v-5.3h-1.7v-0.7h4.2v0.7h-1.7V413.9z
		 M290,413.9v-6h0.8v6H290z M294.2,413.9h-0.8v-5.3h-1.7v-0.7h4.1v0.7h-1.7L294.2,413.9L294.2,413.9z M303.7,413.1
		c-0.6,0.6-1.3,0.9-2.2,0.9s-1.6-0.3-2.2-0.9c-0.6-0.6-0.9-1.3-0.9-2.2s0.3-1.6,0.9-2.2c0.6-0.6,1.3-0.9,2.2-0.9s1.6,0.3,2.2,0.9
		c0.6,0.6,0.9,1.3,0.9,2.2S304.3,412.5,303.7,413.1z M299.9,412.6c0.4,0.4,1,0.7,1.6,0.7c0.6,0,1.2-0.2,1.6-0.7
		c0.4-0.4,0.7-1,0.7-1.7s-0.2-1.3-0.7-1.7c-0.4-0.4-1-0.7-1.6-0.7c-0.6,0-1.2,0.2-1.6,0.7c-0.4,0.4-0.7,1-0.7,1.7
		S299.4,412.2,299.9,412.6z M305.7,413.9v-6h0.9l2.9,4.7v-4.7h0.8v6h-0.8l-3.1-4.9v4.9H305.7L305.7,413.9z"/>
	<path fill="#FFFFFF" d="M298.2,422.7c-2.4,0-4.3,1.8-4.3,4.3c0,2.4,1.9,4.3,4.3,4.3c2.4,0,4.3-1.8,4.3-4.3
		C302.5,424.4,300.6,422.7,298.2,422.7z M298.2,429.5c-1.3,0-2.4-1.1-2.4-2.6s1.1-2.6,2.4-2.6c1.3,0,2.4,1,2.4,2.6
		C300.6,428.4,299.5,429.5,298.2,429.5z M288.9,422.7c-2.4,0-4.3,1.8-4.3,4.3c0,2.4,1.9,4.3,4.3,4.3s4.3-1.8,4.3-4.3
		C293.2,424.4,291.3,422.7,288.9,422.7z M288.9,429.5c-1.3,0-2.4-1.1-2.4-2.6s1.1-2.6,2.4-2.6c1.3,0,2.4,1,2.4,2.6
		C291.3,428.4,290.2,429.5,288.9,429.5z M277.8,424v1.8h4.3c-0.1,1-0.5,1.8-1,2.3c-0.6,0.6-1.6,1.3-3.3,1.3c-2.7,0-4.7-2.1-4.7-4.8
		c0-2.7,2.1-4.8,4.7-4.8c1.4,0,2.5,0.6,3.3,1.3l1.3-1.3c-1.1-1-2.5-1.8-4.5-1.8c-3.6,0-6.7,3-6.7,6.6c0,3.6,3.1,6.6,6.7,6.6
		c2,0,3.4-0.6,4.6-1.9c1.2-1.2,1.6-2.9,1.6-4.2c0-0.4,0-0.8-0.1-1.1C284,424,277.8,424,277.8,424z M323.2,425.4
		c-0.4-1-1.4-2.7-3.6-2.7c-2.2,0-4,1.7-4,4.3c0,2.4,1.8,4.3,4.2,4.3c1.9,0,3.1-1.2,3.5-1.9l-1.4-1c-0.5,0.7-1.1,1.2-2.1,1.2
		s-1.6-0.4-2.1-1.3l5.7-2.4C323.4,425.9,323.2,425.4,323.2,425.4z M317.4,426.8c0-1.6,1.3-2.5,2.2-2.5c0.7,0,1.4,0.4,1.6,0.9
		L317.4,426.8L317.4,426.8z M312.7,430.9h1.9v-12.5h-1.9V430.9z M309.7,423.6c-0.5-0.5-1.3-1-2.3-1c-2.1,0-4.1,1.9-4.1,4.3
		s1.9,4.2,4.1,4.2c1,0,1.8-0.5,2.2-1h0.1v0.6c0,1.6-0.9,2.5-2.3,2.5c-1.1,0-1.9-0.8-2.1-1.5l-1.6,0.7c0.5,1.1,1.7,2.5,3.8,2.5
		c2.2,0,4-1.3,4-4.4v-7.6h-1.8V423.6L309.7,423.6z M307.5,429.5c-1.3,0-2.4-1.1-2.4-2.6s1.1-2.6,2.4-2.6c1.3,0,2.3,1.1,2.3,2.6
		S308.8,429.5,307.5,429.5z M331.9,418.4h-4.5v12.5h1.9v-4.7h2.6c2.1,0,4.1-1.5,4.1-3.9S334,418.4,331.9,418.4z M332,424.4h-2.7
		v-4.3h2.7c1.4,0,2.2,1.2,2.2,2.1C334.1,423.3,333.3,424.4,332,424.4z M343.5,422.6c-1.4,0-2.8,0.6-3.3,1.9l1.7,0.7
		c0.4-0.7,1-0.9,1.7-0.9c1,0,1.9,0.6,2,1.6v0.1c-0.3-0.2-1.1-0.5-1.9-0.5c-1.8,0-3.6,1-3.6,2.8c0,1.7,1.5,2.8,3.1,2.8
		c1.3,0,1.9-0.6,2.4-1.2h0.1v1h1.8v-4.8C347.3,423.9,345.6,422.6,343.5,422.6L343.5,422.6z M343.3,429.5c-0.6,0-1.5-0.3-1.5-1.1
		c0-1,1.1-1.3,2-1.3c0.8,0,1.2,0.2,1.7,0.4C345.3,428.7,344.3,429.5,343.3,429.5z M353.8,422.9l-2.1,5.4h-0.1l-2.2-5.4h-2l3.3,7.6
		l-1.9,4.2h1.9l5.1-11.8H353.8L353.8,422.9z M337,430.9h1.9v-12.5H337V430.9z"/>
	<path fill="#5BC9F4" d="M240.5,408.4c-0.3,0.4-0.4,0.8-0.4,1.5v22c0,0.6,0.2,1.1,0.5,1.4l0.1,0.1l12.4-12.4v-0.2L240.5,408.4z"/>
	
		<linearGradient id="SVGID_1_" gradientUnits="userSpaceOnUse" x1="59.2426" y1="821.8787" x2="53.7596" y2="821.8787" gradientTransform="matrix(4.4095 0 0 -4.4095 1.219326e-005 4045.054)">
		<stop  offset="0" style="stop-color:#FEE000"/>
		<stop  offset="0.194" style="stop-color:#FCCF0B"/>
		<stop  offset="0.547" style="stop-color:#FAB318"/>
		<stop  offset="0.828" style="stop-color:#F9A21B"/>
		<stop  offset="1" style="stop-color:#F99B1C"/>
	</linearGradient>
	<path fill="url(#SVGID_1_)" d="M257.1,425.2l-4.1-4.1v-0.3l4.1-4.1l0.1,0.1l4.9,2.8c1.4,0.8,1.4,2.1,0,2.9L257.1,425.2z"/>
	
		<linearGradient id="SVGID_2_" gradientUnits="userSpaceOnUse" x1="57.8187" y1="821.3708" x2="52.6618" y2="816.2137" gradientTransform="matrix(4.4095 0 0 -4.4095 1.219326e-005 4045.054)">
		<stop  offset="0" style="stop-color:#EF4547"/>
		<stop  offset="1" style="stop-color:#C6186D"/>
	</linearGradient>
	<path fill="url(#SVGID_2_)" d="M257.2,425.1l-4.2-4.2l-12.5,12.5c0.5,0.5,1.2,0.5,2.1,0.1C242.6,433.5,257.2,425.1,257.2,425.1z"/>
	
		<linearGradient id="SVGID_3_" gradientUnits="userSpaceOnUse" x1="52.6332" y1="827.5834" x2="56.8436" y2="823.373" gradientTransform="matrix(4.4095 0 0 -4.4095 1.219326e-005 4045.054)">
		<stop  offset="0" style="stop-color:#279E6F"/>
		<stop  offset="0.317" style="stop-color:#4DAB6D"/>
		<stop  offset="0.74" style="stop-color:#6ABA6A"/>
		<stop  offset="1" style="stop-color:#74C169"/>
	</linearGradient>
	<path fill="url(#SVGID_3_)" d="M257.2,416.7l-14.6-8.3c-0.9-0.5-1.6-0.4-2.1,0.1l12.5,12.4C253,420.9,257.2,416.7,257.2,416.7z"/>
</g>
</svg>
