<svg id="nearby" xmlns="http://www.w3.org/2000/svg" width="48" height="48" viewBox="0 0 48 48">
  <rect id="Rectangle_154" data-name="Rectangle 154" width="48" height="48" fill="none"/>
  <path id="Path_411" data-name="Path 411" d="M311.42,401.451a.5.5,0,0,1-.1-.99c4.281-.859,5.8-2.048,5.8-2.8a.5.5,0,0,1,1,0c0,2.14-4.136,3.29-6.6,3.785A.492.492,0,0,1,311.42,401.451Zm-6.143.741a.5.5,0,0,0,.471-.527.488.488,0,0,0-.527-.471c-1.171.066-2.156.1-3.1.1-9.293,0-15-2.116-15-3.634a.5.5,0,0,0-1,0c0,3.01,8.243,4.634,16,4.634C303.084,402.29,304.087,402.259,305.277,402.192Zm-2-4.068.448-.018a.5.5,0,0,0,.482-.517.524.524,0,0,0-.518-.483l-.455.019c-.362.016-.725.031-1.111.031-6.161,0-9.626-1.016-9.836-1.547.21-.569,3.676-1.586,9.836-1.586,1.058,0,2.14.04,3.306.12a.5.5,0,0,0,.069-1c-1.19-.082-2.294-.122-3.375-.122-.443,0-10.833.03-10.833,2.567s10.39,2.566,10.833,2.566C302.523,398.156,302.9,398.141,303.276,398.124Zm-13.054-6.409a2.05,2.05,0,1,0-2.55,1.981v2.152a.5.5,0,0,0,1,0V393.7A2.049,2.049,0,0,0,290.222,391.715Zm27.9,0a2.051,2.051,0,1,0-2.55,1.981v2.152a.5.5,0,0,0,1,0V393.7A2.049,2.049,0,0,0,318.122,391.715Zm-7.75,5.568a2.051,2.051,0,1,0-2.551,1.981v2.152a.5.5,0,0,0,1,0v-2.152A2.049,2.049,0,0,0,310.372,397.283Zm-7.817-6.611a45.807,45.807,0,0,1,5-6.851,7.864,7.864,0,1,0-10.885-.028,45.781,45.781,0,0,1,5.022,6.879.5.5,0,0,0,.434.251h0A.5.5,0,0,0,302.555,390.672Zm6.429-12.52a6.832,6.832,0,0,1-2.15,4.973,46.142,46.142,0,0,0-4.712,6.329,46.226,46.226,0,0,0-4.739-6.356,6.8,6.8,0,0,1-2.124-4.946,6.863,6.863,0,0,1,13.725,0Zm-6.862,5.038a5.456,5.456,0,0,0,4.133-1.939v-.944a1.164,1.164,0,0,0-1.134-1.25h-1.854l-1.145,2.066-1.144-2.066h-1.855a1.165,1.165,0,0,0-1.135,1.25v.944A5.452,5.452,0,0,0,302.122,383.19Zm2.066-7.751a2.118,2.118,0,1,1-2.066-2.582A2.369,2.369,0,0,1,304.188,375.439Z" transform="translate(-278.122 -362.29)" fill="#fff"/>
</svg>
