<svg id="giftcards_48" xmlns="http://www.w3.org/2000/svg" width="48" height="48" viewBox="0 0 48 48">
  <rect id="Rectangle_1" data-name="Rectangle 1" width="48" height="48" fill="none"/>
  <path id="Path_420" data-name="Path 420" d="M618.917,235.368v3h15v4.5h-19.5v-7.5c5.85-.552,12-4.3,12-8.937,0-1.9-1.431-6.063-5.682-6.063-3.645,0-6.294,3.066-7.818,6.618-1.524-3.552-4.173-6.618-7.818-6.618-4.251,0-5.682,4.164-5.682,6.063,0,4.635,6.15,8.385,12,8.937v7.5h-19.5v-4.5h15v-3h-18v10.5h3v22.5h42v-22.5h3v-10.5Zm1.818-12c2.484,0,2.682,3.033,2.682,3.063,0,2.526-4.383,5.388-8.886,5.946C615.026,228.624,617.138,223.368,620.735,223.368Zm-18.318,3.063c0-.03.2-3.063,2.682-3.063,3.6,0,5.709,5.256,6.2,9.009C606.8,231.819,602.417,228.957,602.417,226.431Zm17.8,40.437-7.233-5.136-7.6,5.136,2.778-8.556-7.245-5.424H610l2.982-8.52,2.841,8.52h9.09l-7.338,5.424Z" transform="translate(-588.917 -220.368)" fill="#fff"/>
</svg>
