<svg xmlns="http://www.w3.org/2000/svg" width="192" height="32.3" viewBox="0 0 192 32.3">
  <g id="secure_payment" transform="translate(-52 -154.85)">
    <g id="visa" transform="translate(52.15 155)">
      <rect id="Rectangle_127" data-name="Rectangle 127" width="47.7" height="32" fill="#fff" stroke="#999" stroke-width="0.3"/>
      <path id="Path_337" data-name="Path 337" d="M310.281,196.338h-.788c-.487,0-.975-.008-1.462.005a.226.226,0,0,1-.267-.219c-.072-.375-.158-.747-.228-1.122a.2.2,0,0,0-.239-.195q-1.553.007-3.105,0a.233.233,0,0,0-.262.18c-.134.39-.274.777-.428,1.159-.032.079-.133.183-.2.184-.847.012-1.694.008-2.542.006a.587.587,0,0,1-.109-.025c.227-.541.448-1.07.67-1.6q1.676-3.988,3.35-7.977a1.2,1.2,0,0,1,1.132-.777c.705,0,1.41,0,2.115,0,.156,0,.217.042.25.2q.777,3.75,1.568,7.5.254,1.209.509,2.417C310.259,196.15,310.265,196.23,310.281,196.338Zm-3.272-3.676-.8-3.86-.058,0-1.43,3.858Zm-30.071-6.368a9.57,9.57,0,0,1,2.3.764,1.409,1.409,0,0,1,.8,1q1.055,4.02,2.1,8.039c.053.205.142.252.337.249.788-.011,1.575-.012,2.363,0a.329.329,0,0,0,.36-.244q1.851-4.438,3.716-8.872c.173-.413.343-.826.522-1.259-.1,0-.162-.01-.228-.01-.78,0-1.56,0-2.34-.005a.282.282,0,0,0-.313.207q-1.227,2.994-2.467,5.983c-.108.263-.218.526-.328.788a.606.606,0,0,1-.1-.251q-.539-2.849-1.077-5.7a1.181,1.181,0,0,0-1.25-1.024q-2.172,0-4.343,0h-.232C276.672,186.18,276.747,186.259,276.938,186.294Zm24.11-.151a6.682,6.682,0,0,0-3.494-.34,4.509,4.509,0,0,0-2.729,1.4,2.6,2.6,0,0,0,.292,3.908,14.245,14.245,0,0,0,1.432.879,9.86,9.86,0,0,1,.909.531.844.844,0,0,1-.067,1.43,2.318,2.318,0,0,1-.926.3,5.922,5.922,0,0,1-2.661-.425c-.144-.054-.287-.11-.45-.172-.143.663-.272,1.3-.423,1.934-.05.21-.01.3.2.373a8.656,8.656,0,0,0,4.326.329,4.125,4.125,0,0,0,2.435-1.251,2.82,2.82,0,0,0-.421-4.3c-.5-.334-1.053-.6-1.573-.911a5.424,5.424,0,0,1-.792-.545.562.562,0,0,1-.118-.774,1.018,1.018,0,0,1,.844-.563,5.243,5.243,0,0,1,2.006.144c.284.083.561.188.857.289l.472-2.176C301.115,186.174,301.083,186.156,301.048,186.143ZM288.61,196.338c.736,0,1.471-.008,2.206.006.21,0,.278-.067.32-.263q.956-4.437,1.926-8.87c.089-.408.173-.818.26-1.228a.371.371,0,0,0-.081-.022c-.833,0-1.665,0-2.5-.005-.151,0-.161.09-.184.2q-.907,4.185-1.818,8.367c-.128.591-.257,1.182-.395,1.817Z" transform="translate(-271.118 -175.063)" fill="#172b84"/>
    </g>
    <g id="mastercard" transform="translate(100.15 155)">
      <rect id="Rectangle_126" data-name="Rectangle 126" width="47.7" height="32" fill="#fff" stroke="#999" stroke-width="0.3"/>
      <path id="Path_340" data-name="Path 340" d="M284.123,552.808V551.17a.971.971,0,0,0-.9-1.036,1.043,1.043,0,0,0-.125,0,1.012,1.012,0,0,0-.918.464.956.956,0,0,0-.862-.464.862.862,0,0,0-.764.388V550.2h-.568v2.609h.573v-1.447a.611.611,0,0,1,.521-.688.58.58,0,0,1,.118,0c.376,0,.568.246.568.688v1.452h.573v-1.447a.616.616,0,0,1,.532-.689.637.637,0,0,1,.107,0c.387,0,.573.246.573.688v1.452Zm8.484-2.609h-.928v-.792h-.573v.792h-.53v.518h.53v1.19c0,.606.235.967.906.967a1.339,1.339,0,0,0,.71-.2l-.164-.486a1.046,1.046,0,0,1-.5.147c-.284,0-.377-.175-.377-.436v-1.18h.928Zm4.843-.066a.77.77,0,0,0-.688.382V550.2H296.2v2.609h.567v-1.463c0-.431.186-.671.557-.671a.915.915,0,0,1,.355.065l.175-.535a1.241,1.241,0,0,0-.4-.071Zm-7.321.273a1.954,1.954,0,0,0-1.065-.273c-.661,0-1.087.317-1.087.835,0,.426.317.688.9.77l.268.038c.311.044.458.126.458.273,0,.2-.207.317-.6.317a1.391,1.391,0,0,1-.868-.273l-.267.442a1.883,1.883,0,0,0,1.13.339c.753,0,1.19-.355,1.19-.852,0-.459-.344-.7-.912-.781l-.267-.038c-.246-.033-.442-.082-.442-.256,0-.192.185-.306.5-.306a1.676,1.676,0,0,1,.814.224Zm15.21-.273a.77.77,0,0,0-.688.382V550.2h-.562v2.609h.567v-1.463c0-.431.186-.671.557-.671a.915.915,0,0,1,.355.065l.175-.535a1.241,1.241,0,0,0-.4-.071Zm-7.316,1.37a1.319,1.319,0,0,0,1.263,1.372c.043,0,.086,0,.129,0a1.368,1.368,0,0,0,.939-.311l-.273-.459a1.144,1.144,0,0,1-.682.235.837.837,0,0,1,0-1.671,1.144,1.144,0,0,1,.682.235l.273-.459a1.369,1.369,0,0,0-.939-.311,1.319,1.319,0,0,0-1.391,1.242c0,.042,0,.085,0,.128Zm5.318,0v-1.3h-.568v.316a.991.991,0,0,0-.825-.382,1.372,1.372,0,0,0,0,2.741.994.994,0,0,0,.825-.382v.316h.568Zm-2.113,0a.78.78,0,1,1,0,.063C301.226,551.545,301.226,551.524,301.228,551.5Zm-6.852-1.37a1.372,1.372,0,0,0,.038,2.741,1.589,1.589,0,0,0,1.07-.366l-.278-.42a1.255,1.255,0,0,1-.759.273.726.726,0,0,1-.781-.639H295.6c.006-.071.011-.142.011-.219a1.25,1.25,0,0,0-1.239-1.37Zm-.011.508a.648.648,0,0,1,.661.633h-1.354a.671.671,0,0,1,.693-.633Zm14.244.862V549.15h-.568v1.365a.989.989,0,0,0-.824-.382,1.372,1.372,0,0,0,0,2.741.992.992,0,0,0,.824-.382v.316h.568Zm-2.113,0a.792.792,0,1,1,0,.063C306.494,551.545,306.495,551.524,306.5,551.5Zm-19.174,0v-1.3h-.567v.316a.991.991,0,0,0-.825-.382,1.372,1.372,0,0,0,0,2.741.994.994,0,0,0,.825-.382v.316h.567Zm-2.112,0a.78.78,0,1,1,0,.063c0-.021,0-.042,0-.063Z" transform="translate(-270.389 -524.542)" fill="#231f20"/>
      <rect id="Rectangle_117" data-name="Rectangle 117" width="8.6" height="15.454" transform="translate(19.55 5.768)" fill="#ff5f00"/>
      <path id="Path_341" data-name="Path 341" d="M290.486,538.038a9.81,9.81,0,0,1,3.754-7.727,9.829,9.829,0,1,0,0,15.454A9.813,9.813,0,0,1,290.486,538.038Z" transform="translate(-270.389 -524.542)" fill="#eb001b"/>
      <path id="Path_342" data-name="Path 342" d="M310.142,538.038a9.829,9.829,0,0,1-15.9,7.727,9.83,9.83,0,0,0,0-15.454,9.829,9.829,0,0,1,15.9,7.727Z" transform="translate(-270.389 -524.542)" fill="#f79e1b"/>
    </g>
    <g id="discover" transform="translate(148.15 155)">
      <rect id="Rectangle_125" data-name="Rectangle 125" width="47.7" height="32" fill="#fff" stroke="#999" stroke-width="0.3"/>
      <path id="Path_338" data-name="Path 338" d="M268.4,519.733H266.47v6.737h1.918a3.507,3.507,0,0,0,2.4-.778,3.383,3.383,0,0,0,1.223-2.586A3.347,3.347,0,0,0,268.4,519.733Zm1.535,5.061a2.492,2.492,0,0,1-1.8.535h-.352v-4.454h.352a2.437,2.437,0,0,1,1.8.544,2.27,2.27,0,0,1,.727,1.677A2.314,2.314,0,0,1,269.934,524.794Zm2.685-5.061h1.314v6.737h-1.314Zm6.465,4.687a2.172,2.172,0,0,1-2.323,2.212,2.62,2.62,0,0,1-2.333-1.283l.849-.817a1.555,1.555,0,0,0,1.434.9.96.96,0,0,0,1.02-.95.8.8,0,0,0-.394-.7,5.269,5.269,0,0,0-.908-.384c-1.234-.444-1.657-.919-1.657-1.847a1.979,1.979,0,0,1,2.1-1.93,2.944,2.944,0,0,1,1.979.747l-.687.9a1.36,1.36,0,0,0-1.06-.546c-.566,0-.979.323-.979.747,0,.364.232.556,1.02.848C278.641,522.865,279.084,523.349,279.084,524.42Zm4-4.839a3.355,3.355,0,0,1,1.617.414v1.546a2.2,2.2,0,0,0-1.648-.758,2.239,2.239,0,0,0-2.2,2.313,2.2,2.2,0,0,0,2.262,2.324,2.1,2.1,0,0,0,1.587-.738v1.547a3.64,3.64,0,0,1-1.648.392,3.488,3.488,0,0,1-3.556-3.515A3.542,3.542,0,0,1,283.085,519.581Zm13.855.152h1.424l-2.91,6.909h-.707l-2.859-6.909h1.436l1.8,4.525Zm2.018,0h3.727v1.142h-2.414v1.495H302.6v1.141h-2.325v1.818h2.414v1.141h-3.727Zm8.929,1.989c0-1.261-.869-1.989-2.384-1.989h-1.948v6.737h1.312v-2.707h.172l1.818,2.707h1.616l-2.12-2.838A1.792,1.792,0,0,0,307.887,521.722Zm-2.636,1.113h-.384v-2.041h.4c.818,0,1.263.343,1.263,1C306.535,522.47,306.09,522.835,305.251,522.835Z" transform="translate(-263.118 -508.063)"/>
      <path id="Path_339" data-name="Path 339" d="M310.968,540.063H275.206c23.132-3.988,35.762-12.9,35.762-12.9Zm-22.254-20.522a3.583,3.583,0,1,0,3.584,3.584A3.583,3.583,0,0,0,288.714,519.541Z" transform="translate(-263.118 -508.063)" fill="#fd6021"/>
    </g>
    <g id="amex" transform="translate(196.15 155)">
      <rect id="Rectangle_124" data-name="Rectangle 124" width="47.7" height="32" fill="#fff" stroke="#999" stroke-width="0.3"/>
      <path id="Path_343" data-name="Path 343" d="M272.126,415.818,267.5,426.059h5.54l.687-1.633h1.57l.687,1.633h6.1v-1.246l.544,1.246h3.154l.543-1.273v1.273H299l1.542-1.591,1.444,1.591,6.514.013-4.643-5.1,4.643-5.149h-6.413l-1.5,1.561-1.4-1.561h-13.8l-1.184,2.643L283,415.818h-5.528v1.2l-.615-1.2Zm1.072,1.454h2.7l3.07,6.944v-6.944h2.958l2.371,4.979,2.185-4.979h2.943v7.349h-1.791l-.015-5.758-2.611,5.758h-1.6l-2.625-5.758v5.758H277.1l-.7-1.648h-3.774l-.7,1.646h-1.974Zm17.865,0h7.283l2.227,2.406,2.3-2.406H305.1l-3.384,3.694,3.384,3.65h-2.329l-2.227-2.434-2.311,2.434h-7.17v-7.344Zm-16.551,1.244-1.244,2.934h2.485Zm18.35.278v1.341h3.973v1.495h-3.973V423.1h4.456l2.071-2.157-1.983-2.146h-4.544Z" transform="translate(-264.15 -404.945)" fill="#26a6d1"/>
    </g>
  </g>
</svg>
