<svg xmlns="http://www.w3.org/2000/svg" width="11" height="16" viewBox="0 0 11 16">
  <path id="lock" d="M58.463,138.5a11.1,11.1,0,0,1-3.605-.533c-1.565-.561-1.894-1.388-1.894-1.983v-6.109a1.5,1.5,0,0,1,1-1.414V127a4.5,4.5,0,0,1,9,0v1.461a1.5,1.5,0,0,1,1,1.414v6.109c0,.595-.329,1.422-1.894,1.983A11.106,11.106,0,0,1,58.463,138.5Zm-4-9.125a.5.5,0,0,0-.5.5v6.109c0,.836,2.018,1.516,4.5,1.516s4.5-.68,4.5-1.516v-6.109a.5.5,0,0,0-.5-.5Zm6.5-1h1V127a3.5,3.5,0,0,0-7,0v1.375h1V127a2.5,2.5,0,0,1,5,0Zm-4,0h3V127a1.5,1.5,0,0,0-3,0Zm1.5,7.312a.5.5,0,0,1-.5-.5V134.1a1.5,1.5,0,1,1,1,0v1.086A.5.5,0,0,1,58.464,135.687Zm0-3.5a.5.5,0,1,0,.5.5A.5.5,0,0,0,58.464,132.187Z" transform="translate(-52.964 -122.5)" fill="#fff"/>
</svg>
