<svg id="title_s" xmlns="http://www.w3.org/2000/svg" xmlns:xlink="http://www.w3.org/1999/xlink" width="137.797" height="71.472" viewBox="0 0 137.797 71.472">
  <defs>
    <linearGradient id="linear-gradient" x1="0.5" y1="1" x2="0.5" gradientUnits="objectBoundingBox">
      <stop offset="0.18" stop-color="#84bb3b"/>
      <stop offset="0.5" stop-color="#482656"/>
    </linearGradient>
  </defs>
  <path id="Path_378" data-name="Path 378" d="M19.77,249.509l10.028,21.5H27.476l-3.382-7.075H14.831l-3.35,7.075h-2.4l10.16-21.5Zm-.271,4.569-3.685,7.783h7.352Zm12.989-5.11h2.046v22.044H32.487Zm5.993,0h2.046v22.044H38.481Zm27.98.541,10.028,21.5H74.167l-3.382-7.075H61.522l-3.35,7.075h-2.4l10.159-21.5Zm-.272,4.569L62.5,261.861h7.352Zm13.428,16.934V248.968h2.046v8.873a8.636,8.636,0,0,1,2.877-2.36,8.062,8.062,0,0,1,9.251,1.666,8.2,8.2,0,0,1,2.388,5.942,8.08,8.08,0,0,1-2.41,5.891,7.853,7.853,0,0,1-5.8,2.441,7.415,7.415,0,0,1-3.519-.833,8.21,8.21,0,0,1-2.789-2.5v2.924Zm8.186-1.564a6.161,6.161,0,0,0,5.447-3.2,6.492,6.492,0,0,0-.007-6.447,6.272,6.272,0,0,0-2.312-2.39,6,6,0,0,0-3.1-.855,6.365,6.365,0,0,0-3.187.855,5.954,5.954,0,0,0-2.319,2.3,6.564,6.564,0,0,0-.809,3.26,6.344,6.344,0,0,0,1.816,4.619A6.007,6.007,0,0,0,87.8,269.448Zm19.632-14.75a7.876,7.876,0,0,1,6.092,2.66,8.54,8.54,0,0,1-.125,11.57,8.408,8.408,0,0,1-11.949,0,8.521,8.521,0,0,1-.125-11.556A7.873,7.873,0,0,1,107.435,254.7Zm-.008,2a5.906,5.906,0,0,0-4.386,1.886,6.3,6.3,0,0,0-1.833,4.561,6.465,6.465,0,0,0,.836,3.216,5.924,5.924,0,0,0,2.259,2.3,6.424,6.424,0,0,0,6.249,0,5.925,5.925,0,0,0,2.259-2.3,6.471,6.471,0,0,0,.836-3.216,6.287,6.287,0,0,0-1.841-4.561A5.911,5.911,0,0,0,107.427,256.7Zm11.819-1.593h2.047v7.426a15.868,15.868,0,0,0,.292,3.742,4.174,4.174,0,0,0,1.676,2.31,5.091,5.091,0,0,0,2.95.848,4.981,4.981,0,0,0,2.906-.826,4.223,4.223,0,0,0,1.647-2.171,15.34,15.34,0,0,0,.307-3.9v-7.426h2.091v7.806a12.355,12.355,0,0,1-.767,4.956,5.87,5.87,0,0,1-2.31,2.609,8.431,8.431,0,0,1-7.747,0,5.82,5.82,0,0,1-2.325-2.631,12.866,12.866,0,0,1-.767-5.08Zm20.245-5.906h2.047v5.906h3.245v1.769h-3.245v14.136h-2.047V256.876H136.7v-1.769h2.792ZM7.5,310.505h.851l2.591,6.041,2.634-6.041h.85l-3.4,7.819h-.17Zm17.123,5.9.627.33a3.415,3.415,0,0,1-.713.978,2.829,2.829,0,0,1-.909.566,3.175,3.175,0,0,1-1.144.194,2.764,2.764,0,0,1-2.213-.928,3.129,3.129,0,0,1-.8-2.1,3.091,3.091,0,0,1,.676-1.961,2.762,2.762,0,0,1,2.293-1.1,2.854,2.854,0,0,1,2.362,1.122,3.131,3.131,0,0,1,.638,1.977h-5.2a2.353,2.353,0,0,0,.644,1.651,2.053,2.053,0,0,0,1.538.645,2.464,2.464,0,0,0,.859-.154,2.249,2.249,0,0,0,.711-.408A3.466,3.466,0,0,0,24.625,316.406Zm0-1.558a2.473,2.473,0,0,0-.434-.951,2.058,2.058,0,0,0-.753-.574,2.306,2.306,0,0,0-.985-.218,2.12,2.12,0,0,0-1.464.547,2.473,2.473,0,0,0-.676,1.2Zm6.343-2.307h.744v1.037a3.111,3.111,0,0,1,.989-.89,2.431,2.431,0,0,1,1.18-.295,2.049,2.049,0,0,1,1.151.33,1.963,1.963,0,0,1,.742.888,4.694,4.694,0,0,1,.239,1.738v2.977h-.744v-2.759a6.791,6.791,0,0,0-.083-1.334,1.467,1.467,0,0,0-.5-.864,1.5,1.5,0,0,0-.957-.29,1.836,1.836,0,0,0-1.21.446,2.093,2.093,0,0,0-.7,1.106,7.7,7.7,0,0,0-.106,1.573v2.121h-.744Zm11.425-2.147h.744v2.147h1.18v.643h-1.18v5.14h-.744v-5.14H41.377v-.643h1.015Zm7.082,2.147h.744v2.7a5.768,5.768,0,0,0,.106,1.361,1.518,1.518,0,0,0,.609.84,1.85,1.85,0,0,0,1.073.308,1.813,1.813,0,0,0,1.057-.3,1.54,1.54,0,0,0,.6-.789,5.58,5.58,0,0,0,.112-1.419v-2.7h.76v2.839a4.49,4.49,0,0,1-.279,1.8,2.131,2.131,0,0,1-.84.949,2.654,2.654,0,0,1-1.406.343,2.682,2.682,0,0,1-1.411-.343,2.114,2.114,0,0,1-.845-.957,4.673,4.673,0,0,1-.279-1.847Zm10.568,0h.76v.845a2.67,2.67,0,0,1,.718-.747,1.415,1.415,0,0,1,.787-.247,1.357,1.357,0,0,1,.659.2l-.388.627a1.037,1.037,0,0,0-.393-.1,1.076,1.076,0,0,0-.718.306,1.934,1.934,0,0,0-.526.949,9.1,9.1,0,0,0-.138,2v1.956h-.76Zm13.455,0v5.783h-.734v-.994a3.19,3.19,0,0,1-1.05.856,2.932,2.932,0,0,1-3.37-.6,2.985,2.985,0,0,1-.869-2.166,2.93,2.93,0,0,1,.877-2.137,2.86,2.86,0,0,1,2.11-.888,2.729,2.729,0,0,1,1.289.3,2.934,2.934,0,0,1,1.013.909v-1.063Zm-2.974.569a2.242,2.242,0,0,0-1.983,1.162,2.344,2.344,0,0,0,0,2.336,2.279,2.279,0,0,0,.842.868,2.2,2.2,0,0,0,1.133.311,2.321,2.321,0,0,0,1.157-.308,2.154,2.154,0,0,0,.842-.834,2.379,2.379,0,0,0,.295-1.184,2.3,2.3,0,0,0-.661-1.678A2.191,2.191,0,0,0,70.523,313.11Zm23.341-1.154-.617.473a3.372,3.372,0,0,0-1.225-1.007,3.586,3.586,0,0,0-1.571-.343,3.471,3.471,0,0,0-1.733.449,3.223,3.223,0,0,0-1.236,1.207,3.338,3.338,0,0,0-.439,1.7,3.2,3.2,0,0,0,.981,2.387,3.4,3.4,0,0,0,2.474.957,3.479,3.479,0,0,0,2.748-1.286l.617.468a3.943,3.943,0,0,1-1.459,1.151,4.578,4.578,0,0,1-1.954.407,4.064,4.064,0,0,1-3.237-1.366,4.123,4.123,0,0,1-.994-2.785,3.873,3.873,0,0,1,1.2-2.889,4.151,4.151,0,0,1,3.017-1.172,4.429,4.429,0,0,1,1.977.433A3.839,3.839,0,0,1,93.864,311.957Zm8.32.436a2.864,2.864,0,0,1,2.215.967,3.1,3.1,0,0,1-.045,4.207,3.058,3.058,0,0,1-4.346,0,3.1,3.1,0,0,1-.045-4.2A2.863,2.863,0,0,1,102.185,312.393Zm0,.728a2.147,2.147,0,0,0-1.6.686,2.292,2.292,0,0,0-.667,1.658,2.354,2.354,0,0,0,.3,1.169,2.156,2.156,0,0,0,.822.837,2.336,2.336,0,0,0,2.272,0,2.155,2.155,0,0,0,.822-.837,2.354,2.354,0,0,0,.3-1.169,2.288,2.288,0,0,0-.669-1.658A2.15,2.15,0,0,0,102.182,313.121Zm8.435-.579h.744v2.7a5.768,5.768,0,0,0,.106,1.361,1.522,1.522,0,0,0,.609.84,1.852,1.852,0,0,0,1.073.308,1.812,1.812,0,0,0,1.057-.3,1.537,1.537,0,0,0,.6-.789,5.58,5.58,0,0,0,.112-1.419v-2.7h.76v2.839a4.49,4.49,0,0,1-.279,1.8,2.131,2.131,0,0,1-.84.949,2.654,2.654,0,0,1-1.406.343,2.682,2.682,0,0,1-1.411-.343,2.114,2.114,0,0,1-.845-.957,4.673,4.673,0,0,1-.279-1.847Zm10.851,0h.744v1.037a3.111,3.111,0,0,1,.989-.89,2.431,2.431,0,0,1,1.18-.295,2.05,2.05,0,0,1,1.151.33,1.964,1.964,0,0,1,.742.888,4.7,4.7,0,0,1,.239,1.738v2.977h-.744v-2.759a6.734,6.734,0,0,0-.083-1.334,1.464,1.464,0,0,0-.5-.864,1.5,1.5,0,0,0-.957-.29,1.835,1.835,0,0,0-1.209.446,2.091,2.091,0,0,0-.7,1.106,7.684,7.684,0,0,0-.106,1.573v2.121h-.744Zm11.424-2.147h.744v2.147h1.18v.643h-1.18v5.14h-.744v-5.14h-1.015v-.643h1.015Zm6.555,2.147h.787l1.988,4.454,1.93-4.454h.792l-3.45,7.9h-.786l1.114-2.554Z" transform="translate(-7.146 -248.968)" fill="#482656"/>
  <path id="Path_379" data-name="Path 379" d="M226.138,464.687h4.953v21.3h7.217v4.724h-12.17Zm26.3-.655a12.92,12.92,0,0,1,9.5,4,13.3,13.3,0,0,1,3.975,9.747,13.156,13.156,0,0,1-3.92,9.641,13.586,13.586,0,0,1-19.25-.106,13.672,13.672,0,0,1,9.7-23.279Zm-.052,4.847a8.166,8.166,0,0,0-6.074,2.512,8.745,8.745,0,0,0-2.462,6.386,8.324,8.324,0,0,0,3.1,6.828,8.5,8.5,0,0,0,5.525,1.964,8.068,8.068,0,0,0,6-2.547,9.18,9.18,0,0,0-.018-12.568A8.144,8.144,0,0,0,252.389,468.879Zm41,.381-3.463,3.3a10.727,10.727,0,0,0-7.954-3.736,8.713,8.713,0,0,0-8.836,8.836,9.29,9.29,0,0,0,1.13,4.621,8.114,8.114,0,0,0,3.2,3.17,9.289,9.289,0,0,0,4.6,1.151A9.475,9.475,0,0,0,286,485.8a14.123,14.123,0,0,0,3.923-2.93l3.357,3.5a18.421,18.421,0,0,1-5.448,3.9,14.887,14.887,0,0,1-5.854,1.087,13.476,13.476,0,0,1-9.933-3.847,13.317,13.317,0,0,1-3.865-9.862,13.5,13.5,0,0,1,1.76-6.917,13.085,13.085,0,0,1,5.041-4.865,14.218,14.218,0,0,1,7.067-1.84,15,15,0,0,1,11.338,5.228Zm10.885-4.573h5.023L319.3,490.708h-5.147l-2.037-5.36H301.5l-2.117,5.36h-5.147Zm2.542,6.9-3.491,8.933h6.962Zm14.874-6.9h4.953v21.3h7.217v4.724h-12.17Z" transform="translate(-196.077 -434.813)" fill="url(#linear-gradient)"/>
  <path id="Path_380" data-name="Path 380" d="M52.109,445.862a8.416,8.416,0,0,1-.911,3.8l-.21.394L43.648,463.8l-7.405-13.84-.08-.149a8.462,8.462,0,1,1,15.946-3.948Zm-5.569,0a2.894,2.894,0,1,0-2.894,2.894A2.894,2.894,0,0,0,46.541,445.862Z" transform="translate(-31.066 -411.798)" fill="#84bb3b"/>
  <path id="Path_381" data-name="Path 381" d="M30.041,596.188c0,3.147-5.632,5.7-12.58,5.7s-12.58-2.551-12.58-5.7c0-2.488,3.528-4.6,8.438-5.375l.34.636c-3.8.579-6.5,2-6.5,3.66,0,2.177,4.611,3.941,10.3,3.941s10.3-1.764,10.3-3.941c0-1.66-2.685-3.077-6.48-3.658l.34-.636C26.521,591.594,30.041,593.7,30.041,596.188Z" transform="translate(-4.881 -544.369)" fill="#482656"/>
</svg>
