<svg id="title_l" xmlns="http://www.w3.org/2000/svg" xmlns:xlink="http://www.w3.org/1999/xlink" width="222.721" height="115.52" viewBox="0 0 222.721 115.52">
  <defs>
    <linearGradient id="linear-gradient" x1="0.5" y1="1" x2="0.5" gradientUnits="objectBoundingBox">
      <stop offset="0" stop-color="#84bb3b"/>
      <stop offset="0.18" stop-color="#84bb3b"/>
      <stop offset="0.5" stop-color="#fff"/>
      <stop offset="1" stop-color="#fff"/>
    </linearGradient>
  </defs>
  <path id="Path_382" data-name="Path 382" d="M27.33,249.842,43.538,284.6H39.786L34.32,273.162H19.348L13.934,284.6H10.059L26.48,249.842Zm-.439,7.384-5.956,12.58H32.818Zm20.994-8.259h3.308V284.6H47.886Zm9.687,0H60.88V284.6H57.573Zm45.224.874L119,284.6h-3.752l-5.466-11.435H94.814L89.4,284.6H85.525l16.421-34.755Zm-.439,7.384L96.4,269.807h11.882Zm21.7,27.371V248.968h3.308v14.341a13.959,13.959,0,0,1,4.649-3.815,13.031,13.031,0,0,1,14.953,2.693,13.248,13.248,0,0,1,3.859,9.6,13.06,13.06,0,0,1-3.895,9.522,12.693,12.693,0,0,1-9.37,3.946,11.985,11.985,0,0,1-5.688-1.347,13.269,13.269,0,0,1-4.508-4.04V284.6Zm13.231-2.528a9.957,9.957,0,0,0,8.8-5.174,10.492,10.492,0,0,0-.011-10.419,10.137,10.137,0,0,0-3.737-3.863,9.7,9.7,0,0,0-5.009-1.383,10.287,10.287,0,0,0-5.151,1.383,9.623,9.623,0,0,0-3.748,3.721,10.609,10.609,0,0,0-1.308,5.269,10.254,10.254,0,0,0,2.935,7.466A9.709,9.709,0,0,0,137.292,282.069Zm31.732-23.84a12.731,12.731,0,0,1,9.846,4.3,13.8,13.8,0,0,1-.2,18.7,13.589,13.589,0,0,1-19.313,0,13.772,13.772,0,0,1-.2-18.678A12.726,12.726,0,0,1,169.023,258.23Zm-.013,3.237a9.546,9.546,0,0,0-7.09,3.048,10.189,10.189,0,0,0-2.963,7.372,10.449,10.449,0,0,0,1.352,5.2,9.576,9.576,0,0,0,3.651,3.722,10.383,10.383,0,0,0,10.1,0,9.576,9.576,0,0,0,3.651-3.722,10.458,10.458,0,0,0,1.352-5.2,10.162,10.162,0,0,0-2.975-7.372A9.554,9.554,0,0,0,169.011,261.467Zm19.1-2.575h3.308v12a25.646,25.646,0,0,0,.473,6.049,6.747,6.747,0,0,0,2.709,3.733,8.229,8.229,0,0,0,4.768,1.37,8.051,8.051,0,0,0,4.7-1.334,6.825,6.825,0,0,0,2.662-3.509,24.793,24.793,0,0,0,.5-6.308v-12h3.379v12.617a19.969,19.969,0,0,1-1.24,8.01,9.488,9.488,0,0,1-3.733,4.218,13.626,13.626,0,0,1-12.522,0,9.407,9.407,0,0,1-3.757-4.253q-1.239-2.73-1.24-8.211Zm32.723-9.545h3.308v9.545h5.245v2.859h-5.245V284.6h-3.308V261.75h-4.512v-2.859h4.512ZM7.5,348.431H8.877l4.189,9.764,4.257-9.764H18.7l-5.5,12.638h-.275Zm27.676,9.537,1.014.533a5.52,5.52,0,0,1-1.153,1.581,4.574,4.574,0,0,1-1.47.915,5.132,5.132,0,0,1-1.849.314,4.467,4.467,0,0,1-3.577-1.5,5.058,5.058,0,0,1-1.29-3.389,5,5,0,0,1,1.092-3.17,4.464,4.464,0,0,1,3.707-1.77,4.612,4.612,0,0,1,3.818,1.813,5.061,5.061,0,0,1,1.032,3.2H28.09a3.8,3.8,0,0,0,1.041,2.669,3.319,3.319,0,0,0,2.486,1.043,3.981,3.981,0,0,0,1.389-.249,3.635,3.635,0,0,0,1.148-.659A5.6,5.6,0,0,0,35.178,357.967Zm0-2.517a4,4,0,0,0-.7-1.538,3.326,3.326,0,0,0-1.217-.928,3.728,3.728,0,0,0-1.592-.352,3.426,3.426,0,0,0-2.365.885,4,4,0,0,0-1.093,1.933Zm10.252-3.729h1.2V353.4a5.028,5.028,0,0,1,1.6-1.439,3.929,3.929,0,0,1,1.907-.477,3.313,3.313,0,0,1,1.86.533,3.172,3.172,0,0,1,1.2,1.435,7.587,7.587,0,0,1,.387,2.81v4.811h-1.2V356.61a10.976,10.976,0,0,0-.134-2.156,2.37,2.37,0,0,0-.8-1.4,2.422,2.422,0,0,0-1.546-.468,2.967,2.967,0,0,0-1.955.722A3.382,3.382,0,0,0,46.8,355.1a12.443,12.443,0,0,0-.172,2.543v3.428h-1.2ZM63.9,348.25h1.2v3.471h1.907v1.04H65.1v8.308H63.9v-8.308H62.254v-1.04H63.9Zm11.446,3.471h1.2v4.365a9.323,9.323,0,0,0,.172,2.2,2.453,2.453,0,0,0,.985,1.357,2.991,2.991,0,0,0,1.734.5,2.93,2.93,0,0,0,1.708-.486,2.49,2.49,0,0,0,.968-1.276,9.019,9.019,0,0,0,.181-2.294v-4.365h1.229v4.588a7.257,7.257,0,0,1-.451,2.913,3.444,3.444,0,0,1-1.358,1.534,4.29,4.29,0,0,1-2.273.554,4.335,4.335,0,0,1-2.281-.554,3.417,3.417,0,0,1-1.366-1.546,7.552,7.552,0,0,1-.451-2.986Zm17.082,0h1.228v1.366a4.314,4.314,0,0,1,1.16-1.207,2.288,2.288,0,0,1,1.272-.4,2.194,2.194,0,0,1,1.065.318l-.627,1.014a1.676,1.676,0,0,0-.636-.163,1.74,1.74,0,0,0-1.16.494,3.125,3.125,0,0,0-.85,1.534,14.706,14.706,0,0,0-.224,3.23v3.162H92.423Zm21.747,0v9.348h-1.186v-1.607a5.157,5.157,0,0,1-1.7,1.383,4.74,4.74,0,0,1-5.447-.975,4.825,4.825,0,0,1-1.4-3.5,4.737,4.737,0,0,1,1.418-3.454,4.622,4.622,0,0,1,3.411-1.435,4.411,4.411,0,0,1,2.084.49,4.743,4.743,0,0,1,1.637,1.469v-1.718Zm-4.807.919a3.624,3.624,0,0,0-3.205,1.879,3.788,3.788,0,0,0,0,3.776,3.682,3.682,0,0,0,1.36,1.4,3.551,3.551,0,0,0,1.832.5,3.752,3.752,0,0,0,1.871-.5,3.481,3.481,0,0,0,1.36-1.347,3.845,3.845,0,0,0,.476-1.913,3.719,3.719,0,0,0-1.068-2.712A3.542,3.542,0,0,0,109.363,352.641Zm37.726-1.864-1,.765a5.45,5.45,0,0,0-1.98-1.628,5.8,5.8,0,0,0-2.539-.554,5.61,5.61,0,0,0-2.8.726,5.21,5.21,0,0,0-2,1.95,5.4,5.4,0,0,0-.709,2.754,5.17,5.17,0,0,0,1.585,3.858,5.493,5.493,0,0,0,4,1.546,5.624,5.624,0,0,0,4.442-2.079l1,.756a6.373,6.373,0,0,1-2.358,1.86,7.4,7.4,0,0,1-3.158.657,6.568,6.568,0,0,1-5.232-2.208,6.663,6.663,0,0,1-1.607-4.5,6.259,6.259,0,0,1,1.946-4.669,6.708,6.708,0,0,1,4.876-1.894,7.159,7.159,0,0,1,3.2.7A6.205,6.205,0,0,1,147.089,350.776Zm13.448.7a4.629,4.629,0,0,1,3.58,1.564,5.017,5.017,0,0,1-.073,6.8,4.942,4.942,0,0,1-7.024,0,5.009,5.009,0,0,1-.073-6.792A4.627,4.627,0,0,1,160.537,351.481Zm0,1.177a3.471,3.471,0,0,0-2.578,1.108,3.705,3.705,0,0,0-1.078,2.681,3.805,3.805,0,0,0,.491,1.89,3.485,3.485,0,0,0,1.328,1.353,3.775,3.775,0,0,0,3.673,0,3.483,3.483,0,0,0,1.328-1.353,3.8,3.8,0,0,0,.491-1.89,3.7,3.7,0,0,0-1.082-2.681A3.475,3.475,0,0,0,160.533,352.658Zm13.633-.937h1.2v4.365a9.324,9.324,0,0,0,.172,2.2,2.46,2.46,0,0,0,.985,1.357,2.993,2.993,0,0,0,1.734.5,2.928,2.928,0,0,0,1.708-.486,2.485,2.485,0,0,0,.968-1.276,9.019,9.019,0,0,0,.181-2.294v-4.365h1.229v4.588a7.257,7.257,0,0,1-.451,2.913,3.445,3.445,0,0,1-1.358,1.534,4.29,4.29,0,0,1-2.273.554,4.335,4.335,0,0,1-2.281-.554,3.417,3.417,0,0,1-1.366-1.546,7.552,7.552,0,0,1-.451-2.986Zm17.538,0h1.2V353.4a5.028,5.028,0,0,1,1.6-1.439,3.929,3.929,0,0,1,1.907-.477,3.314,3.314,0,0,1,1.86.533,3.174,3.174,0,0,1,1.2,1.435,7.592,7.592,0,0,1,.386,2.81v4.811h-1.2V356.61a10.882,10.882,0,0,0-.135-2.156,2.367,2.367,0,0,0-.8-1.4,2.422,2.422,0,0,0-1.546-.468,2.965,2.965,0,0,0-1.955.722,3.38,3.38,0,0,0-1.138,1.787,12.419,12.419,0,0,0-.172,2.543v3.428h-1.2Zm18.465-3.471h1.2v3.471h1.907v1.04h-1.907v8.308h-1.2v-8.308h-1.641v-1.04h1.641Zm10.595,3.471h1.272l3.213,7.2,3.119-7.2h1.28l-5.576,12.767H222.8l1.8-4.128Z" transform="translate(-6.927 -248.968)" fill="#fff"/>
  <path id="Path_383" data-name="Path 383" d="M226.138,465.09h8.006v34.424h11.665v7.635H226.138Zm42.514-1.058A20.883,20.883,0,0,1,284,470.494a21.5,21.5,0,0,1,6.424,15.754,21.264,21.264,0,0,1-6.337,15.582,21.96,21.96,0,0,1-31.113-.172,22.1,22.1,0,0,1,15.677-37.626Zm-.084,7.834a13.2,13.2,0,0,0-9.817,4.06,14.135,14.135,0,0,0-3.979,10.321,13.453,13.453,0,0,0,5.008,11.036,13.735,13.735,0,0,0,8.93,3.174,13.041,13.041,0,0,0,9.7-4.117,14.838,14.838,0,0,0-.029-20.314A13.163,13.163,0,0,0,268.568,471.866Zm66.263.615-5.6,5.337q-5.715-6.039-12.855-6.039a14.084,14.084,0,0,0-14.282,14.281,15.016,15.016,0,0,0,1.827,7.47,13.116,13.116,0,0,0,5.171,5.123,15.015,15.015,0,0,0,7.428,1.86,15.315,15.315,0,0,0,6.371-1.3,22.825,22.825,0,0,0,6.341-4.736l5.426,5.663a29.774,29.774,0,0,1-8.806,6.308,24.062,24.062,0,0,1-9.462,1.758q-9.81,0-16.055-6.218t-6.246-15.939a21.823,21.823,0,0,1,2.844-11.179,21.15,21.15,0,0,1,8.149-7.863,22.98,22.98,0,0,1,11.423-2.973,24.237,24.237,0,0,1,18.326,8.45Zm17.594-7.392h8.118l16.175,42.058H368.4l-3.293-8.664H347.946l-3.422,8.664h-8.319Zm4.108,11.151-5.643,14.439h11.253Zm24.041-11.151h8.006v34.424h11.665v7.635H380.573Z" transform="translate(-177.551 -416.805)" fill="url(#linear-gradient)"/>
  <path id="Path_384" data-name="Path 384" d="M62.541,451.078a13.6,13.6,0,0,1-1.472,6.15l-.34.637L48.865,480.07,36.9,457.7l-.129-.242a13.677,13.677,0,1,1,25.774-6.381Zm-9,0a4.678,4.678,0,1,0-4.678,4.678A4.678,4.678,0,0,0,53.54,451.078Z" transform="translate(-28.529 -396.021)" fill="#84bb3b"/>
  <path id="Path_385" data-name="Path 385" d="M45.547,599.5c0,5.086-9.1,9.209-20.333,9.209S4.881,604.586,4.881,599.5c0-4.022,5.7-7.433,13.639-8.688l.55,1.029c-6.149.936-10.5,3.23-10.5,5.916,0,3.518,7.453,6.37,16.645,6.37s16.646-2.852,16.646-6.37c0-2.683-4.339-4.974-10.473-5.912l.549-1.028C39.857,592.076,45.547,595.483,45.547,599.5Z" transform="translate(-4.881 -515.746)" fill="#fff"/>
</svg>
