<svg id="connect_now" xmlns="http://www.w3.org/2000/svg" width="160" height="17.016" viewBox="0 0 160 17.016">
  <g id="CN" transform="translate(446.287 -373.476)">
    <path id="Path_11" data-name="Path 11" d="M-427.82,375.515a8.536,8.536,0,0,1,5.037-2.025,8.415,8.415,0,0,1,6.544,2.548,8.493,8.493,0,0,1,2.454,5.942c.429,0,.86,0,1.286.006-.837,1.448-1.675,2.892-2.5,4.345-.8-1.465-1.668-2.889-2.481-4.345.423-.013.845,0,1.27-.006a6.073,6.073,0,0,0-1.279-3.706,6.059,6.059,0,0,0-4.688-2.364,6.067,6.067,0,0,0-5.343,2.992c-.446-.778-.9-1.551-1.339-2.332C-428.531,376.2-428.174,375.859-427.82,375.515Zm-2.978,6.44A8.357,8.357,0,0,0-428.274,388a8.377,8.377,0,0,0,5.794,2.489,8.58,8.58,0,0,0,5.167-1.615,10.86,10.86,0,0,0,1.584-1.476c-.446-.779-.91-1.547-1.339-2.333a6.085,6.085,0,0,1-5.411,2.987,6.063,6.063,0,0,1-4.653-2.406,6.072,6.072,0,0,1-1.242-3.693h1.238c-.8-1.444-1.672-2.855-2.46-4.309-.838,1.435-1.656,2.884-2.5,4.317C-431.662,381.948-431.23,381.955-430.8,381.955Z" fill="#ec5f3f"/>
    <path id="Path_12" data-name="Path 12" d="M-426.278,383.04a1.263,1.263,0,0,1,1.161-1.068c.478-.013.959,0,1.44-.006.133,0,.314,0,.375.154.282.493.56.986.846,1.476a1.017,1.017,0,0,0,.186.223c.359-.616.71-1.235,1.07-1.849.6.01,1.2-.029,1.8.018a1.251,1.251,0,0,1,1.1,1.2v1.851c-.284.268-.541.563-.839.811a5.19,5.19,0,0,1-3.42,1.065,5.164,5.164,0,0,1-3.138-1.268,2.314,2.314,0,0,1-.6-.661A17,17,0,0,1-426.278,383.04Zm3.983-5.994a1.976,1.976,0,0,0-1.976,1.976A1.976,1.976,0,0,0-422.3,381a1.976,1.976,0,0,0,1.976-1.976A1.976,1.976,0,0,0-422.3,377.046Z" fill="#00c1ef"/>
  </g>
  <path id="Path_13" data-name="Path 13" d="M-446.287,382.036v-.046a8.4,8.4,0,0,1,8.62-8.5,8.008,8.008,0,0,1,6.938,3.411l-3.411,2.64a4.378,4.378,0,0,0-3.574-1.916,4.044,4.044,0,0,0-3.9,4.322v.047c0,2.452,1.612,4.368,3.9,4.368a4.468,4.468,0,0,0,3.691-1.986l3.411,2.429a8.246,8.246,0,0,1-7.242,3.691A8.3,8.3,0,0,1-446.287,382.036Zm34.634-8.222h4.228l6.727,8.643v-8.643h4.485v16.351h-3.971l-6.984-8.97v8.97h-4.485Zm16.681,0h4.228l6.728,8.643v-8.643h4.485v16.351H-383.5l-6.985-8.97v8.97h-4.485Zm16.682,0h13.151v3.854h-8.667v2.476h7.849v3.574h-7.849v2.593h8.784v3.854H-378.29Zm13.054,8.222v-.046a8.4,8.4,0,0,1,8.62-8.5,8.005,8.005,0,0,1,6.937,3.411l-3.41,2.64a4.379,4.379,0,0,0-3.574-1.916,4.044,4.044,0,0,0-3.9,4.322v.047c0,2.452,1.612,4.368,3.9,4.368a4.468,4.468,0,0,0,3.691-1.986l3.41,2.429a8.245,8.245,0,0,1-7.241,3.691A8.3,8.3,0,0,1-365.236,382.036Zm19.826-4.252h-4.9v-3.97h14.343v3.97h-4.906v12.381h-4.532Zm10.132,9.41h1.832V376.785h-1.832v-2.971h5.976l5.126,8.667a5.815,5.815,0,0,1,.268.542c.082.19.152.37.212.541q.111.291.2.581h.09c-.023-.208-.045-.42-.068-.636-.014-.186-.029-.384-.044-.592s-.022-.406-.022-.592v-5.54h-1.921v-2.971h7.84v2.971h-1.821v13.38h-4.121l-5.149-8.622a3.652,3.652,0,0,1-.279-.536q-.123-.291-.212-.547a5.363,5.363,0,0,1-.19-.592h-.1l.067.647q.021.28.05.6c.018.212.028.408.028.586v5.495h1.921v2.971h-7.852Zm16.438-2.881a6.043,6.043,0,0,1,.52-2.53,5.886,5.886,0,0,1,1.423-1.96,6.487,6.487,0,0,1,2.117-1.262,7.443,7.443,0,0,1,2.6-.447,7.576,7.576,0,0,1,2.619.447,6.452,6.452,0,0,1,2.127,1.262,5.947,5.947,0,0,1,1.43,1.96,6,6,0,0,1,.525,2.53,5.9,5.9,0,0,1-.525,2.507,5.848,5.848,0,0,1-1.43,1.938A6.472,6.472,0,0,1-309.559,390a7.579,7.579,0,0,1-2.6.441,7.609,7.609,0,0,1-2.613-.441,6.487,6.487,0,0,1-2.123-1.245,5.789,5.789,0,0,1-1.423-1.938A5.94,5.94,0,0,1-318.84,384.313Zm4.01,0a3.146,3.146,0,0,0,.212,1.184,2.641,2.641,0,0,0,.581.893,2.525,2.525,0,0,0,.854.564,2.7,2.7,0,0,0,1.022.195,2.7,2.7,0,0,0,1.022-.195,2.515,2.515,0,0,0,.854-.564,2.731,2.731,0,0,0,.587-.893,3.07,3.07,0,0,0,.217-1.184,3.189,3.189,0,0,0-.217-1.207,2.832,2.832,0,0,0-.587-.915,2.516,2.516,0,0,0-.854-.581,2.65,2.65,0,0,0-1.022-.2,2.646,2.646,0,0,0-1.022.2,2.526,2.526,0,0,0-.854.581,2.738,2.738,0,0,0-.581.915A3.269,3.269,0,0,0-314.83,384.313Zm9.054-5.931h6.277v2.859h-1.173l.872,4.1a4.7,4.7,0,0,1,.083.531l.051.5c.015.178.029.353.044.525h.1q.01-.258.033-.525c.015-.149.034-.315.056-.5s.052-.359.089-.531l1.62-6.958h3.384l1.631,6.958c.037.172.067.348.089.531s.041.348.056.5q.022.267.033.525h.09c.007-.172.022-.347.044-.525.015-.149.034-.315.056-.5s.052-.359.09-.531l.871-4.1h-1.173v-2.859h6.265v2.859h-1.34l-2.245,8.924h-4.579l-1.329-5.439c-.044-.186-.08-.372-.106-.558s-.046-.354-.061-.5a3.945,3.945,0,0,1-.034-.5h-.089a3.945,3.945,0,0,1-.034.5c-.015.149-.037.316-.067.5s-.067.372-.111.558l-1.318,5.439h-4.579l-2.245-8.924h-1.352Z" transform="translate(446.287 -373.476)"/>
</svg>
