<svg xmlns="http://www.w3.org/2000/svg" width="160" height="138.93" viewBox="0 0 160 138.93">
  <g id="logo" transform="translate(0)">
    <path id="Path_9" data-name="Path 9" d="M-417.621,187.9a69.683,69.683,0,0,1,41.13-16.535c19.636-1.123,39.88,6.371,53.43,20.805,12.86,12.591,19.861,30.607,20.036,48.518,3.5.014,7.018-.029,10.5.045-6.836,11.824-13.679,23.614-20.448,35.474-6.5-11.962-13.621-23.589-20.26-35.474,3.457-.107,6.9-.019,10.369-.045A49.555,49.555,0,0,0-333.3,210.433a49.428,49.428,0,0,0-38.271-19.3A49.524,49.524,0,0,0-415.2,215.56c-3.641-6.357-7.379-12.667-10.936-19.048C-423.426,193.528-420.507,190.714-417.621,187.9Zm-24.31,52.584c-.076,18.29,7.257,36.727,20.6,49.37,12.154,12.776,29.758,19.823,47.3,20.318a69.969,69.969,0,0,0,42.191-13.186c4.9-3.38,8.842-7.816,12.937-12.049-3.645-6.357-7.437-12.629-10.938-19.05a49.68,49.68,0,0,1-44.176,24.389,49.491,49.491,0,0,1-38-19.643,49.6,49.6,0,0,1-10.135-30.149h10.1c-6.546-11.795-13.645-23.316-20.081-35.187-6.842,11.719-13.521,23.548-20.4,35.246C-448.992,240.428-445.461,240.487-441.931,240.487Z" transform="translate(452.522 -171.258)" fill="#ec5f3f"/>
    <path id="Path_10" data-name="Path 10" d="M-405.032,249.341a10.316,10.316,0,0,1,9.481-8.721c3.908-.1,7.833,0,11.757-.045,1.092.031,2.566.031,3.061,1.253,2.3,4.029,4.579,8.05,6.913,12.051A7.962,7.962,0,0,0-372.3,255.7c2.931-5.03,5.793-10.078,8.738-15.094,4.884.085,9.818-.237,14.687.144a10.227,10.227,0,0,1,8.984,9.768v15.111c-2.322,2.191-4.421,4.6-6.853,6.628a42.371,42.371,0,0,1-27.921,8.69,42.14,42.14,0,0,1-25.625-10.355,18.89,18.89,0,0,1-4.927-5.4A139.984,139.984,0,0,1-405.032,249.341Zm32.521-48.938a16.133,16.133,0,0,0-16.134,16.134,16.133,16.133,0,0,0,16.134,16.133,16.133,16.133,0,0,0,16.133-16.133A16.133,16.133,0,0,0-372.511,200.4Z" transform="translate(452.522 -171.258)" fill="#00c1ef"/>
  </g>
</svg>
